<?xml version="1.0" standalone="no"?>
<!DOCTYPE svg PUBLIC "-//W3C//DTD SVG 20010904//EN"
 "http://www.w3.org/TR/2001/REC-SVG-20010904/DTD/svg10.dtd">
<svg version="1.0" xmlns="http://www.w3.org/2000/svg"
 width="200.000000pt" height="125.000000pt" viewBox="0 0 200.000000 125.000000"
 preserveAspectRatio="xMidYMid meet">

<g transform="translate(0.000000,125.000000) scale(0.100000,-0.100000)"
fill="#000000" stroke="none">
<path d="M1626 1219 c-41 -10 -91 -40 -119 -73 -46 -54 -77 -180 -77 -318 0
-72 15 -100 78 -148 80 -60 92 -77 92 -131 0 -86 -22 -201 -41 -220 -47 -47
-55 -16 -35 124 9 61 16 116 16 120 0 9 -118 -2 -141 -14 -21 -11 -52 -239
-39 -294 14 -60 48 -88 118 -93 102 -7 200 52 239 145 17 43 43 219 42 298 0
76 -13 99 -84 149 -96 68 -98 73 -80 195 8 57 18 107 21 112 3 5 15 9 26 9 20
0 21 -4 15 -62 -4 -35 -9 -85 -13 -111 l-7 -49 69 7 c38 4 74 11 80 16 6 5 16
57 23 116 14 124 5 172 -40 205 -31 23 -90 30 -143 17z"/>
<path d="M1152 1157 c-49 -18 -100 -63 -123 -110 -23 -45 -49 -191 -48 -272 0
-72 16 -99 89 -158 90 -73 93 -81 75 -209 -17 -125 -21 -135 -47 -144 -37 -11
-40 8 -24 120 23 156 29 144 -56 134 -40 -5 -74 -10 -76 -12 -8 -8 -32 -196
-32 -253 0 -52 4 -66 26 -92 73 -87 249 -45 316 75 23 42 32 78 47 192 18 132
17 173 -4 224 -4 9 -36 36 -72 59 -88 58 -95 76 -77 198 15 97 25 121 52 121
13 0 14 -12 9 -77 -4 -43 -9 -94 -13 -114 l-6 -36 73 10 c41 5 77 12 81 15 3
4 12 59 19 123 12 108 11 118 -7 155 -10 21 -30 44 -44 51 -31 16 -114 15
-158 0z"/>
<path d="M718 1106 c-78 -28 -130 -82 -153 -158 -22 -75 -108 -742 -101 -782
4 -20 20 -51 36 -69 27 -30 32 -32 97 -32 111 1 194 61 228 165 17 53 105 684
105 754 0 88 -47 136 -132 136 -24 -1 -60 -7 -80 -14z m50 -168 c2 -20 -13
-152 -33 -294 -59 -432 -59 -434 -95 -434 -16 0 -20 7 -20 32 0 71 93 694 107
716 20 32 37 23 41 -20z"/>
<path d="M388 1061 c-76 -9 -139 -19 -142 -21 -2 -3 -35 -234 -73 -514 l-69
-508 75 6 c42 4 77 9 79 11 2 1 17 102 34 223 l31 220 30 6 c16 3 42 6 58 6
31 0 34 7 45 93 l7 59 -57 -7 c-67 -9 -63 -22 -39 157 l17 127 55 6 c78 9 78
9 86 57 3 24 8 55 11 71 3 15 2 26 -3 26 -4 -1 -70 -9 -145 -18z"/>
</g>
</svg>
